<?xml version="1.0" standalone="no"?>
<!DOCTYPE svg PUBLIC "-//W3C//DTD SVG 20010904//EN"
 "http://www.w3.org/TR/2001/REC-SVG-20010904/DTD/svg10.dtd">
<svg version="1.0" xmlns="http://www.w3.org/2000/svg"
 width="1024.000000pt" height="1024.000000pt" viewBox="0 0 1024.000000 1024.000000"
 preserveAspectRatio="xMidYMid meet">
<metadata>
Created by potrace 1.14, written by Peter Selinger 2001-2017
</metadata>
<g transform="translate(0.000000,1024.000000) scale(0.100000,-0.100000)"
fill="#000000" stroke="none">
<path d="M540 9263 c-85 -30 -152 -90 -191 -171 -33 -68 -33 -197 1 -266 30
-63 93 -126 155 -156 55 -26 40 -25 585 -34 135 -2 259 -6 275 -10 146 -31
308 -104 405 -180 76 -61 199 -199 241 -271 84 -145 93 -175 183 -620 5 -25
46 -232 52 -265 3 -14 14 -70 25 -125 11 -55 22 -111 25 -125 2 -14 7 -36 9
-50 3 -14 8 -38 11 -55 3 -16 10 -50 15 -75 6 -25 13 -56 15 -70 3 -14 34
-173 70 -355 36 -181 68 -341 70 -355 3 -14 29 -146 59 -295 30 -148 56 -283
59 -300 3 -16 13 -64 21 -105 8 -41 19 -97 24 -125 5 -27 14 -70 20 -95 5 -25
13 -61 16 -80 3 -19 8 -42 10 -50 2 -8 7 -31 10 -50 3 -19 29 -150 57 -290 27
-140 52 -266 54 -279 3 -12 12 -52 20 -88 8 -36 13 -68 10 -70 -3 -3 -22 -7
-43 -9 -232 -28 -421 -97 -611 -224 -266 -177 -463 -457 -541 -766 -11 -44
-23 -95 -26 -114 -12 -58 -15 -331 -5 -390 5 -30 12 -68 15 -85 26 -163 120
-374 233 -528 90 -121 228 -249 356 -330 55 -36 199 -110 231 -120 141 -43
195 -58 220 -62 17 -3 57 -9 89 -14 32 -4 151 -9 264 -10 113 -1 210 -4 214
-7 4 -3 8 -16 8 -29 0 -13 5 -27 10 -30 6 -3 10 -15 10 -26 0 -34 95 -224 159
-316 201 -292 510 -484 866 -540 63 -9 306 -10 365 -1 98 16 118 21 210 50
386 123 684 417 820 806 l33 92 679 0 c534 0 679 -3 682 -12 124 -427 436
-756 835 -882 159 -50 226 -60 401 -61 174 0 243 10 390 57 455 145 792 536
874 1013 16 93 14 341 -3 425 -6 30 -13 65 -16 78 -2 12 -6 26 -9 30 -3 5 -7
22 -10 38 -3 16 -17 58 -32 94 -175 431 -532 723 -978 800 -129 23 -355 20
-471 -5 -451 -98 -812 -416 -955 -843 l-29 -87 -680 -3 -679 -2 -17 52 c-19
63 -22 69 -70 173 -166 363 -497 623 -905 711 -64 14 -127 18 -255 18 -150 0
-183 -3 -275 -26 -323 -81 -560 -236 -752 -492 -67 -91 -157 -266 -188 -369
l-21 -69 -232 5 c-128 2 -245 7 -260 11 -264 63 -459 259 -523 527 -13 51 -12
217 1 279 37 175 142 332 285 423 128 83 207 109 370 122 36 3 85 7 110 10 25
2 72 6 105 9 33 3 85 8 115 11 30 3 82 7 115 10 33 3 83 7 110 10 28 2 82 7
120 10 39 3 84 8 100 10 17 2 71 7 120 10 50 3 97 8 105 10 8 2 53 7 100 10
47 4 99 8 115 10 17 1 64 6 105 9 41 4 95 9 120 11 25 2 74 7 110 10 85 8 154
14 215 20 28 3 77 7 110 10 63 5 131 12 218 20 93 9 151 14 222 20 39 3 93 7
120 10 98 11 131 14 215 20 47 4 97 8 111 10 14 2 66 6 115 10 49 4 100 8 114
11 14 2 57 6 95 9 39 3 90 8 115 10 25 2 77 7 115 10 39 4 88 9 110 11 22 2
69 6 105 9 36 4 85 8 110 10 25 2 77 7 115 10 39 3 86 8 105 10 19 2 69 7 110
10 41 4 91 8 110 10 19 2 69 6 110 10 41 3 91 8 110 10 19 3 67 7 105 10 39 3
88 7 110 9 22 2 74 7 115 11 41 4 91 8 110 10 19 2 67 6 105 9 64 6 96 9 225
21 25 3 74 7 110 10 36 3 90 8 120 11 30 3 73 7 95 9 158 13 204 17 235 20 41
6 103 11 215 20 44 3 94 8 110 10 17 2 62 7 100 10 97 8 123 14 176 41 61 31
113 84 142 147 13 29 36 115 52 192 15 77 28 147 30 155 2 8 24 121 50 250 55
276 51 255 70 350 8 41 17 86 20 100 14 71 25 128 30 150 7 36 34 171 40 200
19 97 37 188 41 205 2 11 6 31 9 45 3 14 16 81 30 150 14 69 27 136 30 150 29
147 35 178 40 200 11 57 36 177 40 200 3 14 9 48 15 76 6 28 13 63 16 79 4 24
42 214 60 300 15 75 35 174 39 195 23 115 35 179 40 200 18 83 22 152 12 203
-17 85 -91 178 -178 223 l-54 29 -3462 3 -3462 2 -15 58 c-57 209 -143 395
-254 552 -85 120 -251 286 -372 372 -173 123 -410 226 -604 263 -44 9 -100 20
-123 24 -22 5 -214 9 -425 9 -327 1 -390 -1 -428 -15z m8658 -1955 c-5 -29
-11 -60 -12 -68 -8 -42 -22 -114 -31 -152 -3 -13 -8 -36 -10 -51 -3 -15 -16
-83 -30 -150 -13 -67 -27 -138 -30 -157 -3 -19 -8 -42 -10 -50 -2 -8 -6 -26
-9 -40 -2 -14 -14 -72 -26 -130 -12 -58 -24 -116 -26 -130 -3 -14 -50 -250
-105 -525 -55 -275 -102 -513 -105 -530 -2 -16 -7 -37 -9 -45 -2 -8 -6 -26 -8
-40 -5 -24 -51 -257 -63 -310 -2 -14 -10 -52 -16 -85 -6 -33 -12 -61 -13 -63
-4 -5 -82 -13 -245 -27 -30 -3 -109 -10 -175 -16 -66 -6 -138 -13 -160 -14
-44 -3 -153 -13 -227 -20 -27 -3 -69 -7 -95 -10 -27 -2 -77 -7 -113 -10 -36
-3 -85 -8 -110 -10 -25 -2 -79 -7 -120 -11 -41 -3 -88 -8 -105 -9 -16 -2 -66
-6 -110 -10 -44 -3 -93 -7 -110 -9 -16 -3 -64 -7 -105 -10 -41 -4 -95 -9 -120
-11 -25 -3 -74 -8 -110 -10 -36 -3 -87 -7 -115 -10 -102 -11 -142 -14 -210
-20 -67 -5 -101 -8 -210 -19 -27 -3 -84 -8 -125 -11 -41 -3 -91 -8 -110 -10
-19 -2 -63 -7 -97 -10 -35 -3 -91 -7 -125 -10 -35 -3 -79 -8 -98 -10 -19 -2
-73 -7 -120 -10 -47 -3 -101 -8 -120 -10 -62 -8 -133 -15 -210 -20 -41 -3 -93
-7 -115 -10 -22 -2 -71 -7 -110 -10 -38 -4 -83 -8 -100 -10 -16 -3 -64 -7
-106 -10 -41 -2 -93 -7 -115 -9 -21 -3 -75 -8 -119 -11 -44 -4 -93 -9 -110
-10 -16 -2 -64 -6 -105 -10 -41 -3 -91 -8 -110 -10 -19 -1 -69 -6 -110 -10
-41 -3 -91 -8 -110 -10 -19 -1 -69 -6 -110 -9 -41 -4 -93 -9 -115 -11 -54 -6
-133 -13 -231 -21 l-82 -6 -8 44 c-4 23 -8 45 -9 48 -9 38 -15 70 -19 90 -2
14 -31 160 -65 325 -34 165 -63 309 -65 320 -6 28 -56 280 -67 335 -5 25 -11
54 -13 65 -2 11 -13 65 -25 120 -11 55 -23 114 -26 130 -10 51 -15 75 -46 230
-17 83 -32 158 -34 167 -2 9 -22 110 -45 223 -23 113 -43 216 -46 228 -3 21
-28 140 -39 197 -10 46 -36 175 -41 200 -3 14 -18 90 -35 170 -16 80 -29 148
-29 153 0 4 1421 7 3159 7 l3158 0 -9 -52z m-4527 -4778 c203 -68 351 -216
419 -420 29 -84 35 -240 14 -331 -50 -216 -223 -403 -437 -471 -83 -27 -240
-33 -327 -12 -109 25 -223 88 -304 168 -77 76 -111 127 -151 223 -32 80 -36
101 -40 213 -8 183 54 340 185 470 97 96 200 152 333 180 70 15 235 4 308 -20z
m3840 0 c203 -68 351 -216 419 -420 29 -84 35 -240 14 -331 -50 -216 -223
-403 -437 -471 -83 -27 -240 -33 -327 -12 -109 25 -223 88 -304 168 -77 76
-111 127 -151 223 -32 80 -36 101 -40 213 -8 183 54 340 185 470 97 96 200
152 333 180 70 15 235 4 308 -20z"/>
</g>
</svg>
